<svg width="320" height="301" viewBox="0 0 320 301" fill="none" xmlns="http://www.w3.org/2000/svg">
<path d="M277.43 49.2438L275.932 46.8054C263.318 26.2663 240.512 13.8835 216.471 15.3748C213.384 15.5702 210.315 15.9883 207.289 16.6258C185.43 21.2481 166.409 37.5889 158.556 58.5097C153.922 70.8148 152.623 84.9787 143.823 94.7464C132.374 107.468 112.93 107.857 95.8379 107.334C78.7459 106.811 59.2879 107.256 47.8885 120.014C40.748 128.008 38.4808 139.373 39.06 150.073C40.5856 178.408 60.5662 203.746 85.9782 216.341C111.39 228.936 141.308 230.067 169.122 224.526C208.08 216.751 245.131 195.449 267.401 162.534C289.67 129.619 295.277 84.7737 277.43 49.2438Z" fill="#EBEBEB"/>
<path d="M311.988 295.508C311.988 295.614 244.1 295.691 160.385 295.691C76.6694 295.691 8.76758 295.614 8.76758 295.508C8.76758 295.402 76.6411 295.324 160.385 295.324C244.128 295.324 311.988 295.409 311.988 295.508Z" fill="#263238"/>
<path d="M89.1931 36.1187C92.5238 40.1976 94.3272 45.312 94.2924 50.5794C94.2571 53.562 93.7062 56.8486 95.4436 59.2728C96.7573 61.1105 99.1587 62.0363 100.225 64.0295C101.511 66.4255 100.416 69.4575 101.207 72.0585C102.323 75.7479 106.645 77.2958 109.209 80.1724C110.302 81.4444 111.067 82.9652 111.436 84.6015C111.805 86.2378 111.768 87.9398 111.328 89.5584C110.861 91.1703 110.016 92.6474 108.864 93.8668C107.712 95.0863 106.285 96.0129 104.703 96.5697C103.014 97.2361 101.129 97.2056 99.4624 96.4849C97.732 95.6226 96.6373 93.8486 95.7897 92.117C94.0876 88.7103 79.1356 70.2986 78.2881 66.5809" fill="#263238"/>
<path d="M78.3162 31.7789C72.1998 30.7894 66.3094 34.8534 63.7456 40.4935C61.1818 46.1336 61.097 52.5088 60.9205 58.7285C60.7439 64.9482 60.2919 71.394 57.1348 76.7231C55.129 80.1086 52.0213 83.0842 51.534 86.9785C51.0961 90.4701 52.9042 93.9898 52.3039 97.4601C51.7812 100.485 49.4787 103.114 49.5705 106.175C49.6835 109.864 53.4763 112.642 57.156 112.741C60.8357 112.84 64.2824 110.91 67.1711 108.62C71.8775 104.881 75.6436 100.091 78.1678 94.633" fill="#263238"/>
<path d="M68.2508 46.367C68.0587 44.8273 68.1776 43.2648 68.6005 41.772C69.0234 40.2792 69.7417 38.8866 70.7127 37.677C71.6837 36.4673 72.8876 35.4652 74.2531 34.73C75.6185 33.9949 77.1176 33.5418 78.6614 33.3975C84.8272 32.8038 90.315 37.405 91.2403 43.5399C92.0525 48.9185 92.7447 54.3466 92.7235 56.3185C92.6458 62.2625 89.1921 64.5737 87.7795 65.2734C87.2714 65.4559 86.746 65.5861 86.2116 65.6621V65.7045L87.5252 72.5321C88.1256 77.006 85.6324 81.0134 81.1687 81.6425C76.705 82.2715 73.1948 78.8578 72.5097 74.3838L68.2508 46.367Z" fill="#FFBE9D"/>
<path d="M90.0257 46.1409C89.9268 46.2822 89.1428 45.8652 88.1399 46.0137C87.137 46.1621 86.466 46.7699 86.3389 46.6639C86.2117 46.5579 86.3389 46.3812 86.6496 46.0985C87.0358 45.722 87.5295 45.475 88.0622 45.3917C88.5848 45.311 89.1195 45.4002 89.5878 45.6461C89.9409 45.8723 90.0751 46.0843 90.0257 46.1409Z" fill="#263238"/>
<path d="M81.0833 48.3177C80.9844 48.459 80.2004 48.0349 79.1905 48.1834C78.1805 48.3318 77.5236 48.9467 77.3965 48.8407C77.2694 48.7347 77.3965 48.5509 77.7073 48.2753C78.0935 47.8987 78.5871 47.6517 79.1198 47.5685C79.6432 47.4939 80.1767 47.5854 80.6454 47.83C80.9915 48.0491 81.1327 48.2541 81.0833 48.3177Z" fill="#263238"/>
<path d="M84.7508 53.7106C85.256 53.4674 85.7899 53.2893 86.3399 53.1805C86.5942 53.1169 86.8272 53.0321 86.8484 52.8483C86.8255 52.5901 86.7273 52.3443 86.5659 52.1416L85.5135 50.2615C84.0515 47.6323 82.9568 45.4554 83.0627 45.3918C83.1687 45.3282 84.4753 47.4273 85.8879 50.0565C86.2481 50.7068 86.5942 51.3288 86.9049 51.9154C87.1102 52.2028 87.2099 52.5523 87.1874 52.9049C87.1641 53.0013 87.1189 53.0911 87.0551 53.1671C86.9914 53.2431 86.911 53.3033 86.8202 53.3431C86.6824 53.4034 86.5377 53.4461 86.3893 53.4703C85.856 53.6216 85.3051 53.7024 84.7508 53.7106Z" fill="#263238"/>
<path d="M86.1542 65.6691C86.1542 65.6691 82.3191 66.5526 77.0361 64.3403C77.0361 64.3403 79.3174 69.2525 86.5144 67.5067L86.1542 65.6691Z" fill="#EB996E"/>
<path d="M80.5683 45.6815C80.5118 45.9713 79.4877 45.9854 78.3294 46.3035C77.1711 46.6215 76.26 47.0739 76.0693 46.8548C75.9846 46.7488 76.1117 46.4661 76.4578 46.148C76.9238 45.7491 77.4744 45.4617 78.0679 45.3074C78.6614 45.1531 79.2822 45.136 79.8832 45.2575C80.3494 45.3635 80.5683 45.5472 80.5683 45.6815Z" fill="#263238"/>
<path d="M89.1985 43.9144C89.0572 44.1688 88.3298 44.0345 87.4964 44.1405C86.6629 44.2465 85.9779 44.5222 85.7801 44.3031C85.6953 44.1971 85.7801 43.9568 86.0485 43.6953C86.4189 43.3667 86.8837 43.1638 87.3763 43.1157C87.8628 43.057 88.3555 43.1483 88.7889 43.3772C89.1279 43.568 89.2621 43.7871 89.1985 43.9144Z" fill="#263238"/>
<path d="M78.9012 49.6185C78.9167 49.7279 78.9538 49.8331 79.0103 49.928C79.0668 50.0229 79.1416 50.1056 79.2303 50.1714C79.319 50.2371 79.4199 50.2846 79.5271 50.311C79.6343 50.3374 79.7456 50.3423 79.8547 50.3253C79.9608 50.313 80.0633 50.2798 80.1564 50.2276C80.2496 50.1753 80.3314 50.1051 80.3971 50.0209C80.4628 49.9367 80.5111 49.8403 80.5393 49.7372C80.5674 49.6341 80.5748 49.5265 80.561 49.4206C80.5278 49.2005 80.4089 49.0025 80.2302 48.8701C80.0514 48.7376 79.8275 48.6814 79.6075 48.7138C79.5011 48.7251 79.398 48.7577 79.3044 48.8097C79.2108 48.8616 79.1286 48.9319 79.0627 49.0163C78.9968 49.1007 78.9486 49.1975 78.9208 49.301C78.8931 49.4044 78.8864 49.5124 78.9012 49.6185Z" fill="#263238"/>
<path d="M87.8075 47.6888C87.8406 47.9089 87.9596 48.1068 88.1383 48.2393C88.317 48.3718 88.5409 48.428 88.761 48.3956C88.867 48.3834 88.9696 48.3501 89.0627 48.2979C89.1558 48.2456 89.2376 48.1754 89.3033 48.0912C89.3691 48.007 89.4174 47.9106 89.4455 47.8075C89.4737 47.7045 89.481 47.5968 89.4672 47.4909C89.4341 47.2708 89.3151 47.0728 89.1364 46.9404C88.9577 46.8079 88.7338 46.7517 88.5138 46.7841C88.4073 46.7954 88.3042 46.828 88.2107 46.88C88.1171 46.932 88.0349 47.0022 87.969 47.0866C87.9031 47.171 87.8548 47.2678 87.8271 47.3713C87.7993 47.4747 87.7927 47.5827 87.8075 47.6888Z" fill="#263238"/>
<path d="M86.3328 55.6609C86.0555 55.5746 85.7568 55.5881 85.4885 55.6991C85.2201 55.8101 84.9991 56.0117 84.8637 56.2688C84.7344 56.5048 84.6819 56.7754 84.7136 57.0427C84.7452 57.31 84.8594 57.5608 85.0403 57.7601C85.2328 57.9493 85.4862 58.0638 85.7553 58.0833C86.0245 58.1027 86.2917 58.0257 86.5093 57.8661C86.7818 57.6179 86.9465 57.2729 86.9684 56.9049C87.0164 56.5674 86.9357 56.2243 86.7424 55.9436C86.6432 55.8064 86.5016 55.7058 86.3394 55.6572C86.1773 55.6087 86.0037 55.6149 85.8454 55.6751" fill="#EB996E"/>
<path d="M90.4566 38.6985C89.9022 36.4592 88.5188 34.514 86.5862 33.2563C85.0042 32.1128 83.1251 31.4524 81.176 31.355C79.2149 31.2705 77.3001 31.9668 75.8507 33.2916C74.8222 34.3118 74.234 35.6946 74.2121 37.1436L74.3251 36.1541C74.0283 36.9592 74.0283 37.8439 74.3251 38.649C74.4876 39.0802 74.6853 39.5184 74.8548 39.9495C75.3605 41.1954 76.2984 42.2168 77.4963 42.8261C78.0388 43.1173 78.6464 43.2657 79.262 43.2572C79.5702 43.251 79.8733 43.1776 80.1502 43.0421C80.4271 42.9066 80.6712 42.7123 80.8653 42.4727C81.3038 41.7066 81.4399 40.8039 81.2467 39.9424C81.7101 40.7938 82.3714 41.521 83.1748 42.0628C83.585 42.3251 84.0729 42.4381 84.5566 42.3827C85.0402 42.3274 85.49 42.1071 85.8304 41.7589C86.4096 41.0521 86.1836 39.9354 85.8304 39.059C86.3768 39.8856 87.1423 40.5439 88.0411 40.9602C88.2776 41.096 88.5397 41.1812 88.8108 41.2104C89.0819 41.2396 89.3561 41.2121 89.6161 41.1298C89.8239 41.0267 90.0057 40.8777 90.1476 40.694C90.2895 40.5104 90.3879 40.2969 90.4354 40.0697C90.5402 39.6194 90.5474 39.1518 90.4566 38.6985Z" fill="#263238"/>
<path d="M85.3497 40.5786C85.2862 40.5786 85.3003 39.7375 85.0248 38.4582C84.7071 36.7583 83.8531 35.2051 82.5882 34.0267C81.8929 33.3941 81.0542 32.9404 80.1444 32.705C79.3993 32.522 78.6235 32.5028 77.8702 32.6485C77.1759 32.8109 76.5127 33.0854 75.9067 33.4613C75.9067 33.4613 76.0268 33.2846 76.3376 33.0584C76.7836 32.7462 77.2844 32.5208 77.8137 32.3941C78.6058 32.2085 79.43 32.2085 80.2221 32.3941C81.1981 32.6379 82.0969 33.1241 82.8354 33.8076C84.1598 35.0346 85.0246 36.6783 85.2861 38.4653C85.3702 38.9936 85.4127 39.5277 85.4133 40.0626C85.422 40.237 85.4005 40.4116 85.3497 40.5786Z" fill="#455A64"/>
<path d="M150.398 122.982L123.242 112.204C123.242 112.204 109.335 93.9476 109.625 93.5942L99.8569 104.295L114.053 123.512L146.959 131.23L152.609 129.661C151.366 123.661 150.398 122.982 150.398 122.982Z" fill="#FFBE9D"/>
<path d="M91.2129 70.8994L87.512 69.4858L71.5359 71.5143V74.3414L71.0768 74.398C67.633 75.1307 64.3299 76.4147 61.2948 78.2005C58.4519 79.9372 56.193 82.4851 54.8085 85.5167C53.424 88.5483 52.9773 91.925 53.5258 95.2127C54.1755 99.2555 55.4327 104.168 57.8623 107.009C62.5026 112.444 66.7403 105.73 66.7403 105.73C66.7403 105.73 69.6501 112.373 69.4806 115.519C69.3394 118.155 68.1811 123.639 67.8067 125.35C67.7914 125.418 67.7901 125.489 67.8029 125.558C67.8158 125.627 67.8425 125.692 67.8815 125.751C67.9205 125.809 67.9709 125.858 68.0297 125.896C68.0885 125.934 68.1544 125.96 68.2234 125.972L101.927 132.213L102.09 123.965L101.016 90.0391L99.4976 76.8646C99.4976 76.8646 99.547 70.5743 91.2129 70.8994Z" fill="#F55151"/>
<path d="M98.9814 74.6738L111.836 93.2551L101.489 105.864L98.9814 74.6738Z" fill="#F55151"/>
<path d="M101.758 113.773C101.712 113.374 101.695 112.973 101.709 112.571C101.709 111.737 101.709 110.642 101.666 109.306C101.604 105.721 101.347 102.142 100.896 98.5842C100.367 94.4141 99.5544 90.6894 98.94 87.9824L98.1913 84.8019C98.0828 84.4172 98.0025 84.0251 97.9512 83.6287C98.1118 83.9959 98.2394 84.3767 98.3326 84.7666C98.5515 85.4734 98.8481 86.583 99.1872 87.9259C100.099 91.4131 100.793 94.9539 101.264 98.5276C101.718 102.1 101.939 105.698 101.928 109.299C101.928 110.713 101.892 111.801 101.85 112.571C101.853 112.974 101.823 113.376 101.758 113.773Z" fill="#263238"/>
<path d="M70.116 85.5225C70.116 85.579 69.1414 85.5719 67.5805 85.6497C65.5438 85.7602 63.5183 86.0225 61.5206 86.4342C59.5234 86.8536 57.5595 87.4182 55.6443 88.1234C54.1753 88.6677 53.2924 89.0705 53.2642 89.014C53.4452 88.872 53.6448 88.7555 53.8574 88.6677C54.2459 88.4556 54.825 88.187 55.5525 87.8831C59.3636 86.3082 63.4366 85.4643 67.5593 85.3953C68.3503 85.3953 68.9718 85.3953 69.4309 85.4377C69.6623 85.4302 69.8934 85.4588 70.116 85.5225Z" fill="#FAFAFA"/>
<path d="M99.8844 94.0253C99.3679 94.2129 98.8288 94.3317 98.2812 94.3784C95.6695 94.7596 93.0236 94.8497 90.392 94.6468C89.8424 94.6373 89.2964 94.5566 88.7676 94.4066C89.3127 94.3582 89.861 94.3582 90.4061 94.4066C91.4091 94.4066 92.8004 94.4066 94.3331 94.4066C95.8657 94.4066 97.25 94.2513 98.2529 94.1594C98.7916 94.0654 99.3377 94.0204 99.8844 94.0253Z" fill="#FAFAFA"/>
<path d="M105.783 85.6219C105.005 86.522 104.072 87.2759 103.029 87.8482C102.044 88.5144 100.945 88.9936 99.787 89.2618C99.7447 89.1628 101.2 88.555 102.838 87.509C104.477 86.4629 105.713 85.537 105.783 85.6219Z" fill="#FAFAFA"/>
<path d="M100.592 77.0061C98.3636 79.012 95.5243 80.2073 92.5332 80.3986C92.5332 80.2856 94.4755 79.9887 96.7073 79.0346C98.9392 78.0804 100.521 76.9142 100.592 77.0061Z" fill="#FAFAFA"/>
<path d="M101.29 108.415C101.083 108.555 100.86 108.671 100.627 108.762C100.182 108.974 99.5389 109.235 98.7196 109.539C96.5911 110.305 94.3938 110.863 92.1583 111.207C89.9229 111.553 87.659 111.678 85.3992 111.582C84.5305 111.546 83.8312 111.483 83.351 111.419C83.0995 111.403 82.8507 111.358 82.6094 111.285C82.6094 111.221 83.6829 111.285 85.4345 111.327C89.925 111.369 94.3926 110.682 98.6631 109.292C100.273 108.762 101.269 108.359 101.29 108.415Z" fill="#FAFAFA"/>
<path d="M101.552 117.992C101.552 117.992 101.453 118.063 101.248 118.169L100.344 118.565C99.5673 118.932 98.4161 119.413 96.9753 119.978C95.5345 120.544 93.79 121.088 91.8265 121.625C87.5579 122.775 83.1765 123.456 78.7603 123.654C76.7262 123.731 74.897 123.724 73.3573 123.654C71.8176 123.583 70.5816 123.47 69.727 123.35L68.7453 123.215C68.6296 123.207 68.5156 123.183 68.4062 123.145C68.5209 123.126 68.6377 123.126 68.7523 123.145L69.7411 123.208C70.5957 123.279 71.86 123.35 73.3643 123.392C74.8687 123.434 76.7262 123.392 78.7462 123.321C80.7662 123.251 82.9839 122.996 85.2934 122.615C87.603 122.233 89.7783 121.773 91.7418 121.279C93.7052 120.784 95.4427 120.226 96.8835 119.71C98.3243 119.194 99.4967 118.763 100.288 118.437L101.206 118.077C101.318 118.037 101.434 118.008 101.552 117.992Z" fill="#FAFAFA"/>
<path d="M39.6045 268.247L35.7835 285.514L28.8125 298.299C28.694 298.518 28.6215 298.758 28.5994 299.006C28.5774 299.253 28.6064 299.502 28.6845 299.738C28.7626 299.974 28.8882 300.191 29.0536 300.377C29.219 300.562 29.4206 300.711 29.646 300.816C29.9076 300.936 30.1942 300.991 30.4818 300.978C30.7693 300.964 31.0494 300.882 31.2987 300.738C34.5334 298.872 46.406 291.924 46.6108 290.645C46.858 289.168 51.8514 272.7 51.8514 272.7L39.6045 268.247Z" fill="#F55151"/>
<g opacity="0.6">
<path opacity="0.6" d="M29.646 300.815L46.9004 289.507L46.7168 290.214C46.5658 290.844 46.1952 291.401 45.6715 291.783C44.2589 292.793 40.325 295.507 31.3552 300.752C31.0977 300.903 30.8068 300.987 30.5086 300.999C30.2104 301.01 29.914 300.947 29.646 300.815Z" fill="white"/>
</g>
<g opacity="0.6">
<path opacity="0.6" d="M44.7316 283.082C44.4824 283.186 44.2804 283.379 44.1643 283.623C44.0483 283.867 44.0265 284.145 44.103 284.404C44.1973 284.656 44.3845 284.863 44.6262 284.981C44.8679 285.099 45.1457 285.121 45.4026 285.04C45.6694 284.93 45.8853 284.724 46.0082 284.462C46.131 284.201 46.1518 283.903 46.0665 283.627C45.9414 283.376 45.7254 283.184 45.4627 283.088C45.2001 282.992 44.9107 283 44.6539 283.111" fill="white"/>
</g>
<path d="M35.408 294.271C35.1231 293.635 34.7232 293.058 34.2285 292.567C33.6588 292.17 33.0189 291.885 32.3428 291.726C32.3428 291.677 32.59 291.599 33.0067 291.642C33.5489 291.712 34.0592 291.937 34.4757 292.292C34.8954 292.633 35.2051 293.09 35.3657 293.606C35.4857 294.009 35.4504 294.271 35.408 294.271Z" fill="#263238"/>
<path d="M33.6221 296.271C33.5233 296.327 33.1066 295.635 32.2802 295.161C31.7531 294.916 31.2104 294.706 30.6558 294.532C30.9607 294.432 31.285 294.406 31.6019 294.457C31.9187 294.507 32.2191 294.632 32.478 294.822C33.4173 295.366 33.721 296.25 33.6221 296.271Z" fill="#263238"/>
<path d="M38.4034 291.882C37.8028 291.215 37.1511 290.595 36.4541 290.03C35.6862 289.561 34.8834 289.153 34.0527 288.807C35.008 288.788 35.939 289.108 36.6801 289.712C37.4971 290.204 38.1091 290.974 38.4034 291.882Z" fill="#263238"/>
<path d="M40.0071 286.729C39.9364 286.821 39.0818 286.192 37.8882 285.846C36.6946 285.5 35.614 285.556 35.6069 285.436C36.393 285.232 37.2196 285.245 37.9991 285.473C38.7786 285.7 39.4821 286.135 40.0353 286.729H40.0071Z" fill="#263238"/>
<path d="M41.257 281.69C40.568 281.264 39.8243 280.933 39.0463 280.708C38.2449 280.598 37.4323 280.598 36.6309 280.708C36.6309 280.665 36.8498 280.496 37.3018 280.361C37.896 280.2 38.5197 280.18 39.123 280.302C39.7264 280.425 40.2927 280.687 40.7767 281.068C41.1369 281.407 41.2852 281.662 41.257 281.69Z" fill="#263238"/>
<path d="M39.3082 279.753C39.3087 279.529 39.3568 279.307 39.4494 279.103C39.6495 278.52 39.9668 277.983 40.3817 277.527C40.6532 277.166 41.035 276.902 41.4694 276.778C41.6173 276.754 41.769 276.774 41.905 276.837C42.041 276.9 42.155 277.003 42.2322 277.131C42.362 277.395 42.3897 277.697 42.3099 277.979C42.1288 278.546 41.7564 279.032 41.2565 279.355C40.7565 279.677 40.1602 279.816 39.5695 279.746C38.987 279.663 38.4421 279.41 38.0035 279.017C37.5648 278.625 37.2521 278.111 37.1046 277.541C37.0707 277.396 37.0676 277.246 37.0956 277.1C37.1236 276.954 37.182 276.815 37.267 276.693C37.3646 276.579 37.4959 276.499 37.642 276.465C37.788 276.43 37.9412 276.444 38.0792 276.502C38.4785 276.701 38.8192 277.001 39.068 277.372C39.4424 277.862 39.7269 278.415 39.9085 279.004C39.9946 279.215 40.0355 279.441 40.0286 279.669C39.7439 278.907 39.3463 278.192 38.8491 277.548C38.6176 277.246 38.3173 277.004 37.9733 276.841C37.8977 276.809 37.8134 276.801 37.7332 276.82C37.653 276.839 37.5811 276.884 37.5284 276.947C37.479 277.031 37.4473 277.123 37.4351 277.219C37.423 277.315 37.4307 277.413 37.4577 277.506C37.6051 277.985 37.8847 278.414 38.2646 278.741C38.6444 279.069 39.109 279.283 39.6048 279.358C40.1044 279.416 40.6089 279.303 41.036 279.037C41.4631 278.771 41.7877 278.369 41.9567 277.895C42.0252 277.703 42.0252 277.493 41.9567 277.301C41.9167 277.228 41.8549 277.17 41.7802 277.135C41.7054 277.099 41.6214 277.088 41.54 277.103C41.1719 277.204 40.8439 277.416 40.6007 277.711C40.0589 278.315 39.622 279.005 39.3082 279.753Z" fill="#263238"/>
<g opacity="0.3">
<path opacity="0.3" d="M39.1384 270.12L38.312 274.078L50.8061 276.156L51.8514 272.7L39.5833 268.247L39.1384 270.12Z" fill="black"/>
</g>
<path d="M95.401 274.636L94.3698 288.433C94.3698 288.433 108.043 294.087 108.1 296.688L81.2612 295.649L81.9675 274.078L95.401 274.636Z" fill="#F55151"/>
<g opacity="0.6">
<path opacity="0.6" d="M86.1407 286.949C85.8802 287.019 85.6544 287.182 85.506 287.407C85.3576 287.632 85.297 287.904 85.3356 288.171C85.395 288.434 85.5522 288.664 85.7752 288.815C85.9983 288.966 86.2704 289.027 86.5362 288.984C86.8132 288.911 87.0532 288.737 87.2097 288.497C87.3663 288.257 87.4283 287.967 87.3838 287.684C87.2945 287.415 87.105 287.192 86.8549 287.06C86.6048 286.928 86.3134 286.899 86.0418 286.977" fill="white"/>
</g>
<g opacity="0.6">
<path opacity="0.6" d="M81.2749 295.649L81.4303 293.472L107.104 295.26C107.104 295.26 108.283 295.826 108.114 296.674L81.2749 295.649Z" fill="white"/>
</g>
<path d="M94.8222 288.313C94.8222 288.447 94.1583 288.482 93.5014 288.878C92.8446 289.274 92.4773 289.811 92.3573 289.754C92.2372 289.698 92.4632 288.949 93.2684 288.482C94.0735 288.016 94.8575 288.193 94.8222 288.313Z" fill="#263238"/>
<path d="M97.5904 289.606C97.5904 289.74 97.0395 289.938 96.5734 290.475C96.1072 291.012 95.9589 291.592 95.8247 291.585C95.6905 291.578 95.6411 290.829 96.2344 290.171C96.8276 289.514 97.5904 289.465 97.5904 289.606Z" fill="#263238"/>
<path d="M99.0581 293.02C98.938 293.02 98.7827 292.377 99.1429 291.677C99.5031 290.977 100.132 290.709 100.181 290.822C100.231 290.935 99.8421 291.302 99.5525 291.882C99.2629 292.462 99.1852 293.013 99.0581 293.02Z" fill="#263238"/>
<path d="M94.6955 285.146C94.639 285.259 94.0457 285.054 93.2829 285.075C92.5201 285.097 91.9551 285.308 91.8703 285.195C91.7856 285.082 92.3789 284.638 93.2829 284.623C94.1869 284.609 94.7802 285.047 94.6955 285.146Z" fill="#263238"/>
<g opacity="0.3">
<path opacity="0.3" d="M95.2107 277.372L95.0271 279.831L81.855 279.195L81.9468 276.354L95.2107 277.372Z" fill="black"/>
</g>
<path d="M94.8725 282.355C94.4288 282.462 93.9638 282.443 93.5306 282.298C93.0409 282.197 92.5663 282.033 92.118 281.811C91.8566 281.682 91.6041 281.535 91.3623 281.372C91.2149 281.282 91.0816 281.17 90.9668 281.04C90.8889 280.939 90.8467 280.815 90.8467 280.687C90.8467 280.559 90.8889 280.435 90.9668 280.334C91.0355 280.244 91.1245 280.172 91.2265 280.124C91.3285 280.077 91.4404 280.054 91.553 280.058C91.7231 280.065 91.8916 280.093 92.0545 280.143C92.3371 280.225 92.6114 280.334 92.8738 280.468C93.3198 280.686 93.7276 280.975 94.0815 281.323C94.6818 281.924 94.8725 282.426 94.8302 282.447C94.7878 282.468 94.4841 282.065 93.8696 281.563C93.5089 281.281 93.1152 281.044 92.6972 280.857C92.448 280.753 92.1933 280.664 91.9344 280.588C91.6519 280.503 91.4118 280.496 91.3341 280.588C91.2564 280.68 91.3341 280.659 91.3341 280.743C91.4188 280.837 91.5163 280.918 91.6236 280.984C91.8502 281.142 92.0861 281.286 92.3299 281.415C92.7372 281.64 93.1653 281.824 93.6083 281.966C94.0384 282.066 94.4609 282.195 94.8725 282.355Z" fill="#263238"/>
<path d="M94.6947 282.538C94.46 282.142 94.3539 281.683 94.391 281.223C94.3938 280.726 94.4748 280.232 94.6312 279.76C94.7325 279.484 94.8578 279.217 95.0055 278.962C95.0849 278.787 95.2077 278.635 95.3622 278.522C95.5168 278.408 95.6979 278.335 95.8883 278.312C96.0089 278.319 96.1248 278.361 96.2224 278.433C96.32 278.504 96.3952 278.602 96.4392 278.714C96.5006 278.873 96.5387 279.04 96.5522 279.209C96.5987 279.509 96.5987 279.814 96.5522 280.114C96.4578 280.613 96.2419 281.082 95.9237 281.478C95.3728 282.185 94.8219 282.291 94.8077 282.248C94.7936 282.206 95.2315 281.944 95.6623 281.287C95.9096 280.912 96.0711 280.488 96.1355 280.043C96.1713 279.785 96.1713 279.524 96.1355 279.266C96.1002 278.983 96.0013 278.743 95.8954 278.771C95.7895 278.799 95.5281 278.969 95.4081 279.195C95.2702 279.421 95.1498 279.657 95.0479 279.902C94.8844 280.328 94.7798 280.776 94.7371 281.231C94.6453 282.022 94.7654 282.538 94.6947 282.538Z" fill="#263238"/>
<path d="M67.6573 125.845C67.6573 125.845 63.4196 126.035 60.5945 140.539C57.7694 155.042 36.2349 272.558 36.2349 272.558L51.8507 272.7L81.2744 160.972L79.318 276.177L95.181 277.393C95.181 277.393 107.082 149.967 107.188 142.553C107.329 133.308 102.025 123.958 102.025 123.958L67.6573 125.845Z" fill="#263238"/>
<path d="M89.1219 124.608C89.2208 124.608 87.5964 132.912 85.4987 143.111C83.4011 153.31 81.6212 161.565 81.5224 161.544C81.4235 161.523 83.0409 153.239 85.1385 143.041C87.2362 132.842 89.0443 124.587 89.1219 124.608Z" fill="#455A64"/>
<path d="M91.5506 126.679C91.5506 126.636 91.9744 126.509 92.4617 126.94C92.6001 127.066 92.7097 127.22 92.7829 127.392C92.856 127.564 92.891 127.75 92.8855 127.937C92.8678 128.173 92.7834 128.4 92.6421 128.59C92.5008 128.78 92.3084 128.926 92.0874 129.011C91.8717 129.109 91.6329 129.145 91.3982 129.113C91.1634 129.082 90.9422 128.985 90.7596 128.835C90.623 128.706 90.5152 128.551 90.4434 128.378C90.3715 128.205 90.3373 128.018 90.3429 127.831C90.3429 127.181 90.7808 126.954 90.7878 126.997C90.6687 127.256 90.6062 127.538 90.6042 127.824C90.6137 127.967 90.6517 128.108 90.7159 128.236C90.7802 128.365 90.8695 128.479 90.9785 128.573C91.1179 128.669 91.2791 128.729 91.4475 128.746C91.6158 128.764 91.7859 128.738 91.942 128.673C92.0981 128.608 92.2352 128.504 92.3409 128.372C92.4465 128.239 92.5172 128.083 92.5465 127.916C92.5569 127.773 92.5385 127.629 92.4924 127.493C92.4463 127.357 92.3734 127.231 92.2781 127.124C91.932 126.721 91.5436 126.735 91.5506 126.679Z" fill="#455A64"/>
<path d="M90.8807 132.417C90.8807 132.375 91.3186 132.417 91.587 133.004C91.6552 133.171 91.6862 133.352 91.6776 133.532C91.6691 133.713 91.6213 133.89 91.5376 134.05C91.4161 134.241 91.2451 134.394 91.0428 134.495C90.8406 134.596 90.6148 134.639 90.3897 134.621C90.1646 134.603 89.9487 134.524 89.7652 134.392C89.5817 134.26 89.4375 134.081 89.3481 133.873C89.2916 133.703 89.2732 133.522 89.2939 133.344C89.3146 133.166 89.3741 132.994 89.4682 132.841C89.8001 132.311 90.2521 132.325 90.238 132.368C90.2239 132.41 89.899 132.509 89.6942 132.962C89.5905 133.215 89.5905 133.5 89.6942 133.753C89.7679 133.893 89.8759 134.013 90.0081 134.1C90.1403 134.187 90.2923 134.24 90.4502 134.252C90.6081 134.265 90.7666 134.238 90.911 134.173C91.0554 134.108 91.1811 134.007 91.2762 133.88C91.4093 133.639 91.4422 133.355 91.368 133.089C91.1632 132.608 90.8454 132.467 90.8807 132.417Z" fill="#455A64"/>
<path d="M75.9149 126.82C75.8859 127.063 75.8241 127.301 75.7313 127.527C75.5107 128.174 75.2342 128.801 74.9049 129.4C73.8273 131.399 72.2709 133.1 70.3752 134.349C68.4794 135.599 66.3035 136.358 64.0424 136.56C63.3633 136.619 62.6803 136.619 62.0012 136.56C61.7619 136.552 61.5246 136.514 61.2949 136.447C61.2949 136.376 62.3614 136.496 64.0494 136.284C66.2494 136.017 68.3575 135.243 70.208 134.022C72.0585 132.802 73.601 131.169 74.7143 129.251C75.5406 127.824 75.8514 126.799 75.9149 126.82Z" fill="#455A64"/>
<path d="M106.298 137.132C106.298 137.132 106.115 137.047 105.825 136.849C105.421 136.558 105.042 136.232 104.695 135.874C103.534 134.697 102.627 133.293 102.033 131.75C101.439 130.207 101.169 128.557 101.241 126.905C101.258 126.408 101.321 125.913 101.432 125.428C101.51 125.081 101.559 124.898 101.588 124.905C101.616 124.912 101.503 125.675 101.503 126.912C101.504 130.159 102.709 133.289 104.886 135.697C105.712 136.609 106.334 137.076 106.298 137.132Z" fill="#455A64"/>
<path d="M161.085 137.542C161.318 136.977 161.255 137.203 157.511 134.715C157.511 134.715 162.879 138.249 162.321 136.567C161.838 135.929 161.248 135.382 160.577 134.948C161.989 135.782 162.808 135.874 163.056 135.535C163.479 134.948 160.407 132.708 158.945 131.697C160.282 132.654 161.684 133.516 163.14 134.277C164.009 134.545 163.592 133.527 163.006 132.785C162.42 132.043 157.872 127.661 156.65 126.354C156.533 126.254 156.44 126.13 156.376 125.991C156.312 125.852 156.279 125.701 156.279 125.548C156.279 125.395 156.312 125.243 156.376 125.104C156.44 124.965 156.533 124.842 156.65 124.742C158.839 123.329 159.8 121.074 159.771 120.332C159.747 120.165 159.671 120.01 159.553 119.889C159.435 119.768 159.282 119.688 159.115 119.659C158.949 119.631 158.778 119.656 158.627 119.731C158.476 119.807 158.352 119.928 158.274 120.077C157.721 120.765 157.077 121.374 156.36 121.887C155.804 122.321 155.178 122.658 154.51 122.883C153.733 123.138 149.912 122.926 149.093 122.509L146.486 131.351C146.486 131.351 155.943 135.775 157.737 136.637C159.941 137.683 160.923 137.973 161.085 137.542Z" fill="#FFBE9D"/>
<path d="M155.809 133.407C155.731 133.513 156.96 134.411 158.549 135.422C160.138 136.432 161.473 137.16 161.537 137.054C161.6 136.948 160.371 136.043 158.789 135.04C157.207 134.036 155.879 133.273 155.809 133.407Z" fill="#EB996E"/>
<path d="M156.7 131.676C156.629 131.782 157.886 132.814 159.525 133.987C161.163 135.16 162.519 136.029 162.59 135.93C162.661 135.832 161.411 134.793 159.765 133.619C158.119 132.446 156.777 131.577 156.7 131.676Z" fill="#EB996E"/>
<path d="M157.638 129.923C157.568 130.021 158.74 131.025 160.259 132.156C161.777 133.287 163.084 134.121 163.14 134.022C163.197 133.923 162.045 132.919 160.527 131.788C159.008 130.658 157.716 129.824 157.638 129.923Z" fill="#EB996E"/>
<path d="M61.4499 97.8984L68.3856 98.2801C68.8769 100.218 69.5338 102.109 70.3491 103.934C75.9357 94.2373 80.237 81.2396 81.3388 76.0164C81.1834 75.5029 80.9927 74.9233 80.7667 74.2778C80.5975 73.3019 80.6263 72.302 80.8514 71.3375C81.0421 70.1784 81.367 68.6094 81.4589 67.8885C81.7626 65.6833 82.1157 65.3299 82.8714 65.5843C83.9167 65.9236 82.4406 71.7828 83.2952 71.91C83.7613 71.9737 84.3193 69.9664 84.4888 68.3196C84.6583 66.6728 85.3928 61.6122 85.9367 61.2518C86.7348 60.757 87.4269 61.5415 87.2292 63.1813C87.0314 64.821 86.7701 69.7897 87.6388 69.8533C88.5075 69.9169 89.2138 61.5203 89.2138 61.5203C89.2138 61.5203 89.0796 59.6968 90.0825 59.7393C91.8977 59.817 90.4851 68.673 90.3297 69.5141C90.2167 70.0936 91.1631 70.2208 91.2479 69.5706C91.3327 68.9203 91.7705 61.167 93.6139 61.2306C95.0265 61.28 92.5192 68.5246 93.3173 70.2067C94.1154 71.8888 94.6663 64.503 96.0224 64.6019C96.5238 64.6443 96.8981 64.7433 95.9729 68.9204C95.0699 72.2419 93.9877 75.512 92.7311 78.7163C90.6123 90.3076 81.1552 127.385 66.3798 120.6C58.1163 116.805 54.2529 97.9832 54.2529 97.9832L61.4499 97.8984Z" fill="#FFBE9D"/>
<path d="M92.7451 78.7797C92.7573 78.6921 92.781 78.6066 92.8158 78.5253C92.8793 78.3415 92.957 78.1012 93.063 77.8185C93.296 77.1471 93.6139 76.2141 94.0306 74.9914C94.4473 73.7686 94.9487 72.2844 95.4431 70.5316C95.6974 69.6622 95.9093 68.7151 96.1 67.7044C96.1988 67.1956 96.2907 66.6725 96.3542 66.1354C96.3718 65.8695 96.3718 65.6027 96.3542 65.3367C96.3542 65.0611 96.2907 64.8349 96.0717 64.8278C95.8528 64.8208 95.6974 64.9551 95.542 65.1883C95.4013 65.4379 95.2854 65.7006 95.1959 65.9728C94.9982 66.5312 94.8428 67.1249 94.6874 67.7256C94.532 68.3264 94.3908 68.9554 94.2071 69.5916C94.1271 69.94 93.9834 70.2707 93.7834 70.5669C93.7331 70.6249 93.6667 70.6667 93.5927 70.6871C93.546 70.6973 93.4977 70.6969 93.4512 70.6859C93.4048 70.6749 93.3614 70.6535 93.3243 70.6234C93.2431 70.549 93.1761 70.4604 93.1265 70.3619C93.0519 70.1884 93.002 70.0052 92.9782 69.8177C92.946 68.3921 93.0883 66.968 93.402 65.577C93.522 64.8702 93.6492 64.1635 93.741 63.4567C93.7834 63.0962 93.8257 62.7499 93.8328 62.3682C93.8399 61.9866 93.7834 61.5837 93.635 61.5201C93.4867 61.4565 93.1265 61.6544 92.9288 61.9512C92.7335 62.2648 92.5793 62.6021 92.4697 62.9549C92.2289 63.6932 92.047 64.4495 91.9258 65.2166C91.7917 65.994 91.6857 66.7856 91.5939 67.5914C91.5586 67.9942 91.5162 68.3971 91.4809 68.807L91.4244 69.4219C91.4319 69.5532 91.4105 69.6846 91.3617 69.8068C91.3129 69.9289 91.2378 70.0388 91.1419 70.1287C91.0209 70.2172 90.875 70.2648 90.7252 70.2648C90.5754 70.2648 90.4294 70.2172 90.3085 70.1287C90.24 70.0834 90.1819 70.0241 90.138 69.9546C90.0942 69.8852 90.0656 69.8072 90.0542 69.7258C90.0435 69.6508 90.0435 69.5747 90.0542 69.4997V69.3512L90.2449 68.1144C90.365 67.2804 90.4638 66.4464 90.5415 65.5982C90.6192 64.7501 90.6828 63.8949 90.6969 63.0397C90.7383 62.193 90.6526 61.3448 90.4427 60.5235C90.3939 60.3151 90.2676 60.1331 90.0895 60.0147C90.0043 59.9873 89.9127 59.9876 89.8277 60.0155C89.7427 60.0434 89.6687 60.0976 89.6163 60.1701C89.3876 60.5885 89.2939 61.0675 89.3479 61.5413C89.1925 63.2022 89.016 64.8349 88.7758 66.4393C88.6558 67.238 88.5216 68.0366 88.3238 68.8212C88.2673 69.012 88.2108 69.2099 88.1402 69.4078C88.073 69.6476 87.9322 69.8603 87.7376 70.0156C87.6515 70.0579 87.5537 70.0697 87.4601 70.0492C87.3664 70.0287 87.2825 69.977 87.222 69.9025C87.1358 69.8119 87.0707 69.7033 87.0313 69.5845C86.9551 69.3884 86.9007 69.1846 86.8689 68.9766C86.7033 67.4386 86.6892 65.888 86.8265 64.3472C86.9309 63.629 86.9711 62.9028 86.9466 62.1774C86.9237 61.8678 86.782 61.579 86.5511 61.3717C86.4968 61.3379 86.4363 61.3155 86.3732 61.3058C86.3101 61.2961 86.2456 61.2993 86.1838 61.3151C86.1177 61.3374 86.0539 61.3658 85.9931 61.3999C85.9295 61.4565 85.9366 61.3999 85.8942 61.5201C85.6388 62.1557 85.4517 62.8168 85.3363 63.492C85.195 64.1988 85.0749 64.842 84.969 65.5063C84.863 66.1707 84.7642 66.821 84.6794 67.4712C84.5947 68.1214 84.5523 68.7575 84.4252 69.3936C84.3154 70.0151 84.1499 70.6254 83.9307 71.2171C83.8726 71.3677 83.8041 71.5141 83.7259 71.6554C83.6271 71.7896 83.5705 71.9593 83.3022 72.0441C83.2335 72.0567 83.1626 72.0487 83.0985 72.021C83.0344 71.9933 82.9799 71.9472 82.942 71.8886C82.8925 71.807 82.8545 71.719 82.829 71.6271C82.7972 71.4734 82.7783 71.3174 82.7724 71.1606C82.7724 69.952 82.9349 68.8494 82.9985 67.7822C83.0445 67.272 83.0445 66.7587 82.9985 66.2485C82.9985 66.0223 82.8925 65.7537 82.7654 65.7043C82.6764 65.6606 82.5785 65.6379 82.4793 65.6379C82.3802 65.6379 82.2823 65.6606 82.1933 65.7043C81.8968 66.0229 81.7132 66.4301 81.6707 66.8634C81.5647 67.2945 81.5223 67.7327 81.4446 68.1497C81.148 69.8177 80.8372 71.2596 80.6889 72.4328C80.6193 72.9488 80.6193 73.4718 80.6889 73.9877C80.7878 74.4118 80.9361 74.7935 81.0138 75.0903C81.0915 75.3872 81.1692 75.5992 81.2186 75.7971C81.2449 75.8728 81.2639 75.9509 81.2751 76.0303C81.2328 75.9619 81.1996 75.8882 81.1763 75.8112L80.9361 75.1044C80.8372 74.8005 80.6889 74.4613 80.5689 73.9948C80.4933 73.465 80.4933 72.9272 80.5689 72.3975C80.703 71.203 80.9856 69.7753 81.2751 68.1002C81.3528 67.6832 81.3952 67.245 81.487 66.7927C81.5376 66.5538 81.6013 66.3178 81.6777 66.0859C81.7483 65.8288 81.9024 65.6026 82.1156 65.4427C82.244 65.3747 82.387 65.3391 82.5323 65.3391C82.6776 65.3391 82.8207 65.3747 82.949 65.4427C83.0871 65.5298 83.2006 65.651 83.2785 65.7945C83.3564 65.9381 83.3961 66.0993 83.394 66.2626C83.4434 66.7939 83.4434 67.3286 83.394 67.8599C83.3445 68.9342 83.175 70.058 83.2033 71.203C83.2084 71.3385 83.225 71.4732 83.2527 71.6059C83.2527 71.7402 83.3516 71.7967 83.3375 71.7684C83.3233 71.7402 83.4717 71.6554 83.5282 71.5423C83.5978 71.4169 83.6592 71.287 83.7118 71.1535C83.921 70.5806 84.0747 69.9889 84.1709 69.3866C84.291 68.7717 84.3333 68.1356 84.4181 67.4783C84.5028 66.821 84.5876 66.1707 84.6935 65.4993C84.7995 64.8278 84.9195 64.1564 85.0537 63.4708C85.1686 62.7548 85.3677 62.055 85.647 61.3858C85.7035 61.2736 85.7888 61.1784 85.8942 61.1102C85.9881 61.0587 86.0876 61.0183 86.1909 60.99C86.3093 60.9561 86.4336 60.9481 86.5555 60.9663C86.6773 60.9846 86.7938 61.0289 86.8971 61.096C87.061 61.2263 87.1964 61.3888 87.2948 61.5737C87.3932 61.7585 87.4526 61.9616 87.4692 62.1703C87.5222 62.5549 87.5222 62.9449 87.4692 63.3295C87.4339 63.6899 87.3986 64.0362 87.3774 64.432C87.2398 65.9374 87.254 67.4529 87.4198 68.9554C87.45 69.1339 87.4973 69.3091 87.561 69.4785C87.5822 69.5469 87.6184 69.6096 87.667 69.6622C87.667 69.6622 87.667 69.6622 87.7023 69.6622C87.7023 69.8248 87.7023 69.6622 87.7023 69.7258C87.7023 69.7894 87.7023 69.7258 87.7023 69.6693C87.7904 69.5512 87.8595 69.42 87.9071 69.2806C87.973 69.1062 88.0295 68.9225 88.0766 68.7293C88.2673 67.9801 88.3944 67.1885 88.5145 66.3969C88.7546 64.8066 88.9312 63.174 89.0795 61.5201V61.5554C89.0167 60.9729 89.143 60.3855 89.4397 59.8804C89.553 59.736 89.7084 59.6305 89.8844 59.5786C90.0603 59.5266 90.248 59.5308 90.4215 59.5906C90.5696 59.6728 90.6997 59.784 90.8041 59.9176C90.9084 60.0512 90.9848 60.2043 91.0289 60.368C91.2551 61.2371 91.3479 62.1356 91.3043 63.0326C91.3043 63.909 91.2266 64.7713 91.1489 65.6265C91.0712 66.4817 90.9653 67.3228 90.8452 68.1568C90.7817 68.5808 90.7181 68.9908 90.6545 69.4078C90.598 69.6693 90.6122 69.6764 90.6545 69.7541C90.7036 69.7872 90.7614 69.8049 90.8205 69.8049C90.8797 69.8049 90.9375 69.7872 90.9865 69.7541C91.0712 69.6905 91.0854 69.5703 91.1066 69.3371L91.156 68.7222L91.2831 67.4995C91.3679 66.6937 91.4809 65.888 91.6151 65.1035C91.7458 64.3155 91.9346 63.5382 92.1801 62.7782C92.3083 62.394 92.4814 62.0263 92.6957 61.6827C92.8124 61.4974 92.9663 61.3386 93.1477 61.2162C93.2484 61.1433 93.3651 61.0956 93.488 61.0771C93.6109 61.0587 93.7364 61.07 93.854 61.1102C93.9622 61.177 94.0535 61.2678 94.1209 61.3757C94.1883 61.4836 94.2299 61.6055 94.2424 61.7321C94.2716 61.931 94.2834 62.132 94.2778 62.3329C94.2778 62.7216 94.2283 63.0962 94.1859 63.4708C94.0871 64.1776 93.9529 64.9268 93.8257 65.6406C93.5224 66.9832 93.3754 68.3565 93.3878 69.7329C93.4078 69.8807 93.4457 70.0255 93.5009 70.164C93.5265 70.2142 93.5573 70.2616 93.5927 70.3054C93.5927 70.3054 93.5927 70.3054 93.5927 70.2559C93.7512 70.0004 93.8681 69.7213 93.9387 69.429C94.1224 68.8141 94.2707 68.1921 94.4331 67.5843C94.5788 66.9795 94.7556 66.3827 94.9629 65.7961C95.0607 65.5056 95.1885 65.2261 95.3442 64.9621C95.4285 64.8183 95.5387 64.6912 95.6691 64.5875C95.7402 64.5259 95.8249 64.4823 95.9163 64.4603C96.0076 64.446 96.1005 64.446 96.1918 64.4603C96.2882 64.4699 96.3802 64.5052 96.4584 64.5623C96.5367 64.6195 96.5982 64.6965 96.6367 64.7854C96.6957 64.934 96.7269 65.0921 96.7286 65.2519C96.734 65.5378 96.7175 65.8237 96.6791 66.1071C96.6155 66.6584 96.5096 67.1814 96.4107 67.6974C96.2059 68.7081 95.9799 69.6693 95.7044 70.5245C95.1747 72.2773 94.645 73.7616 94.2142 74.9702C93.7834 76.1788 93.4161 77.0905 93.1689 77.7407C93.0488 78.0376 92.9499 78.2708 92.8793 78.4475C92.8477 78.5631 92.8027 78.6746 92.7451 78.7797Z" fill="#EB996E"/>
<path d="M54.188 98.6972C55.5299 103.44 58.1573 110.755 60.9753 118.487C61.0642 118.736 61.2249 118.953 61.4371 119.111C61.6494 119.269 61.9036 119.36 62.1676 119.372C62.4316 119.385 62.6935 119.319 62.9201 119.183C63.1466 119.047 63.3277 118.847 63.4403 118.607L70.3477 103.984C70.3477 103.984 68.6809 91.9686 68.8221 92.3998C68.9634 92.8309 54.5694 93.9547 54.5694 93.9547L54.188 98.6972Z" fill="#F55151"/>
<path d="M69.7547 96.3435C69.7547 96.4001 68.893 96.6545 67.5299 97.1775C65.7484 97.8542 64.0321 98.6917 62.4023 99.6795C60.7746 100.672 59.2383 101.807 57.8115 103.072C56.7167 104.04 56.0881 104.705 56.0458 104.662C56.0034 104.62 56.1658 104.464 56.4342 104.146C56.8126 103.704 57.2133 103.282 57.6349 102.881C59.0271 101.54 60.5618 100.355 62.2116 99.3474C63.8619 98.3523 65.6141 97.5372 67.4381 96.916C67.9894 96.7259 68.5505 96.5655 69.119 96.4354C69.3246 96.3711 69.5392 96.34 69.7547 96.3435Z" fill="#FAFAFA"/>
<path d="M72.4963 99.9907C72.0475 99.5379 71.6583 99.0296 71.338 98.4782C70.5132 97.1913 69.8042 95.8336 69.2192 94.4213C68.6339 93.0047 68.1776 91.538 67.8561 90.0392C67.6915 89.4261 67.6084 88.794 67.6089 88.1592C67.8195 88.7518 67.9871 89.3588 68.1103 89.9756C68.4887 91.4391 68.9605 92.8769 69.5229 94.2799C70.1105 95.6756 70.7851 97.0329 71.5429 98.3439C71.8956 98.8719 72.2141 99.4219 72.4963 99.9907Z" fill="#263238"/>
<path d="M77.1016 35.2349C75.9034 37.2112 75.1606 39.4299 74.9272 41.7297C74.6938 44.0295 74.9758 46.3524 75.7526 48.5294C76.4589 50.4731 77.589 52.3885 77.3841 54.4523C77.1793 56.5161 75.569 58.5587 76.134 60.5942C76.473 61.8028 77.5042 62.7145 77.9068 63.8878C78.3659 65.3014 77.9068 66.7927 77.6596 68.2416C77.0946 71.9451 78.2811 75.6698 78.5707 79.4017C78.8603 83.1335 77.8644 87.5084 74.5308 89.134C73.5208 89.6288 72.2 89.7702 71.3596 89.0139C70.286 88.0597 70.5826 86.3352 70.8793 84.9216C73.8033 70.786 64.77 56.9896 66.8323 42.6843C67.1643 40.3944 68.4426 36.5071 70.0883 34.9097C71.7339 33.3124 76.3035 33.4962 77.8573 35.1925" fill="#263238"/>
<path d="M63.188 76.2427C63.188 76.2427 63.6188 75.7338 64.2545 74.7302C65.1465 73.3128 65.7713 71.7437 66.0979 70.1008C66.311 68.9691 66.3845 67.8155 66.3168 66.6658C66.1933 65.3291 66.1438 63.9865 66.1685 62.6442C66.2106 61.9092 66.3459 61.1824 66.5711 60.4815C66.8292 59.7594 67.1556 59.0636 67.5457 58.4035C68.3368 57.0677 69.3326 55.8238 70.2508 54.495C71.1936 53.2392 71.8494 51.7916 72.1719 50.2543C72.3285 48.8064 72.2449 47.3425 71.9247 45.9218C71.6575 44.6013 71.5531 43.2531 71.6139 41.9072C71.698 40.7316 71.9354 39.5721 72.3202 38.4582C72.8597 36.8417 73.709 35.3461 74.8204 34.0549C75.1157 33.7039 75.4367 33.3755 75.781 33.0725C75.8901 32.9561 76.0135 32.854 76.1482 32.7686C76.1482 32.7686 75.675 33.228 74.9264 34.1821C73.1432 36.397 72.1006 39.1167 71.9459 41.9567C71.8986 43.2806 72.0148 44.6052 72.2919 45.9006C72.6288 47.3595 72.7196 48.8645 72.5603 50.3533C72.2255 51.9334 71.5507 53.4215 70.5827 54.7141C69.6575 56.0641 68.6617 57.301 67.8848 58.6014C67.5026 59.237 67.1855 59.9095 66.9383 60.6087C66.7149 61.281 66.5796 61.9795 66.5358 62.6866C66.5045 64.0141 66.5422 65.3423 66.6488 66.6658C66.7048 67.8386 66.6147 69.0139 66.3804 70.1644C66.0265 71.8297 65.355 73.4111 64.4028 74.8221C64.145 75.2035 63.8618 75.5671 63.5553 75.9105C63.4454 76.0344 63.3222 76.1458 63.188 76.2427Z" fill="#455A64"/>
<path d="M56.4907 77.2955C56.5476 77.1307 56.621 76.9721 56.7097 76.822C56.8862 76.4898 57.1122 76.0516 57.4159 75.5003C58.0092 74.3482 58.8921 72.6732 59.7608 70.5528C60.8235 68.0764 61.4128 65.4225 61.4983 62.7287C61.4986 61.9526 61.4396 61.1776 61.3217 60.4105C61.2016 59.6189 61.018 58.8202 60.8979 57.9862C60.751 57.1236 60.7702 56.2407 60.9544 55.3853C61.1933 54.507 61.6844 53.7181 62.367 53.1165C63.6948 51.9079 65.298 51.1163 66.1314 49.6957C66.8535 48.287 67.279 46.7451 67.3816 45.1652C67.531 43.7169 67.8584 42.2926 68.3562 40.9245C69.4757 37.9875 71.4704 35.4658 74.07 33.7012C74.4845 33.422 74.9162 33.1695 75.3625 32.9449C75.5132 32.8546 75.6746 32.7834 75.8428 32.7329C75.8428 32.7329 75.2072 33.0722 74.1548 33.8214C72.6716 34.8805 71.3875 36.1942 70.3621 37.7016C69.6509 38.7348 69.072 39.8532 68.6387 41.0305C68.1628 42.4018 67.8545 43.8258 67.7206 45.2712C67.5087 46.7767 67.3392 48.4588 66.4352 49.9501C65.5311 51.4414 63.8784 52.2896 62.6142 53.484C61.9699 54.0435 61.5054 54.7813 61.2793 55.6044C61.1076 56.4137 61.0908 57.2484 61.2299 58.064C61.3429 58.8768 61.5194 59.6825 61.6395 60.4812C61.7617 61.2667 61.8184 62.061 61.809 62.856C61.7131 65.5991 61.0921 68.2983 59.9797 70.8073C59.2573 72.5028 58.4366 74.1548 57.5219 75.7547L56.7732 76.8644C56.6945 77.0177 56.5999 77.1622 56.4907 77.2955Z" fill="#455A64"/>
<path d="M290.171 277.011C290.204 276.908 290.246 276.809 290.298 276.714C290.397 276.502 290.531 276.219 290.694 275.859C291.185 274.755 291.58 273.61 291.873 272.438C292.65 269.399 292.925 264.755 291.774 259.242C291.149 256.236 290.33 253.273 289.323 250.372C288.292 247.227 287.084 243.891 286.103 240.279C284.994 236.513 284.459 232.6 284.514 228.674C284.662 224.568 285.877 220.475 287.212 216.39C288.546 212.305 289.924 208.326 290.333 204.297C290.789 200.434 290.013 196.525 288.116 193.13C286.35 189.872 284.125 187.08 282.465 184.196C280.912 181.517 279.766 178.62 279.068 175.602C278.066 171.232 277.991 166.701 278.849 162.3C279.162 160.69 279.635 159.116 280.262 157.6C280.243 157.706 280.214 157.81 280.177 157.911L279.895 158.809C279.654 159.6 279.337 160.788 279.033 162.343C278.243 166.723 278.361 171.219 279.379 175.552C280.087 178.534 281.237 181.392 282.79 184.034C284.45 186.861 286.682 189.688 288.49 192.96C290.433 196.425 291.232 200.415 290.771 204.361C290.355 208.446 288.97 212.468 287.635 216.546C286.3 220.624 285.1 224.674 284.952 228.709C284.888 232.597 285.412 236.471 286.505 240.202C287.473 243.792 288.659 247.128 289.684 250.287C290.681 253.204 291.483 256.184 292.085 259.207C293.208 264.762 292.89 269.455 292.085 272.502C291.77 273.676 291.347 274.819 290.821 275.915L290.383 276.756C290.322 276.849 290.251 276.934 290.171 277.011Z" fill="#263238"/>
<path d="M284.726 187.045C284.726 187.045 281.35 176.224 287.41 169.891C287.457 169.84 287.517 169.803 287.584 169.785C287.651 169.766 287.721 169.766 287.788 169.785C287.855 169.804 287.915 169.841 287.961 169.893C288.008 169.944 288.04 170.007 288.053 170.075C288.378 171.863 288.78 177.305 284.726 187.045Z" fill="#F55151"/>
<path d="M286.754 173.496C286.743 174.166 286.667 174.833 286.528 175.489C286.302 176.867 286.04 178.478 285.758 180.26C285.475 182.041 285.214 183.659 284.995 185.03C284.933 185.699 284.815 186.361 284.642 187.009C284.576 186.341 284.59 185.667 284.684 185.002C284.797 183.765 285.016 182.069 285.32 180.203C285.624 178.337 285.956 176.669 286.217 175.446C286.32 174.778 286.5 174.123 286.754 173.496Z" fill="#263238"/>
<path d="M288.695 212.567C288.695 212.567 290.765 201.421 299.085 198.664C299.15 198.641 299.221 198.637 299.289 198.652C299.357 198.667 299.419 198.701 299.469 198.749C299.519 198.798 299.554 198.859 299.571 198.926C299.588 198.994 299.586 199.064 299.565 199.131C299.014 200.848 296.832 205.845 288.695 212.567Z" fill="#F55151"/>
<path d="M296.817 201.527C296.495 202.115 296.116 202.671 295.687 203.188L292.77 207.04L289.875 210.906C289.51 211.467 289.096 211.994 288.639 212.482C288.897 211.86 289.229 211.271 289.627 210.729C290.334 209.69 291.294 208.291 292.453 206.785C293.611 205.28 294.663 203.958 295.461 202.997C295.858 202.458 296.313 201.965 296.817 201.527Z" fill="#263238"/>
<path d="M286.449 240.506C286.449 240.506 285.192 229.24 292.354 224.186C292.409 224.143 292.475 224.117 292.545 224.11C292.615 224.103 292.685 224.117 292.747 224.149C292.81 224.18 292.862 224.23 292.897 224.29C292.932 224.351 292.95 224.42 292.947 224.49C292.926 226.307 292.283 231.72 286.449 240.506Z" fill="#F55151"/>
<path d="M291.04 227.593C290.908 228.251 290.707 228.893 290.439 229.508L288.773 234.046C288.151 235.742 287.593 237.276 287.12 238.583C286.939 239.227 286.702 239.853 286.414 240.456C286.479 239.786 286.626 239.126 286.851 238.491C287.198 237.304 287.734 235.664 288.391 233.897C289.048 232.13 289.691 230.54 290.178 229.402C290.403 228.771 290.692 228.165 291.04 227.593Z" fill="#263238"/>
<path d="M292.714 268.621C292.714 268.621 291.867 257.313 299.198 252.521C299.255 252.481 299.323 252.459 299.392 252.455C299.462 252.452 299.531 252.468 299.592 252.502C299.653 252.536 299.703 252.586 299.737 252.646C299.771 252.707 299.787 252.776 299.784 252.846C299.7 254.662 298.866 260.055 292.714 268.621Z" fill="#F55151"/>
<path d="M297.743 255.885C297.585 256.538 297.36 257.173 297.072 257.779C296.55 259.066 295.928 260.607 295.243 262.253C294.558 263.9 293.957 265.434 293.435 266.727C293.226 267.365 292.958 267.983 292.637 268.572C292.73 267.904 292.903 267.249 293.152 266.621C293.541 265.448 294.134 263.837 294.854 262.091C295.575 260.345 296.267 258.776 296.797 257.659C297.048 257.036 297.365 256.441 297.743 255.885Z" fill="#263238"/>
<path d="M279.867 177.539C279.867 177.539 269.852 172.28 269.633 163.523C269.632 163.454 269.65 163.387 269.685 163.328C269.719 163.268 269.769 163.219 269.829 163.186C269.889 163.153 269.957 163.136 270.026 163.138C270.094 163.14 270.161 163.161 270.219 163.198C271.709 164.23 275.848 167.792 279.867 177.539Z" fill="#F55151"/>
<path d="M271.717 166.534C272.187 167.015 272.606 167.543 272.967 168.11C273.787 169.234 274.74 170.563 275.793 172.026L278.618 175.927C279.048 176.44 279.431 176.991 279.762 177.574C279.245 177.144 278.783 176.652 278.385 176.111C277.586 175.164 276.541 173.807 275.439 172.273C274.338 170.739 273.37 169.319 272.706 168.28C272.317 167.734 271.985 167.149 271.717 166.534Z" fill="#263238"/>
<path d="M290.651 200.77C290.651 200.77 280.311 196.141 279.583 187.398C279.578 187.329 279.591 187.26 279.622 187.199C279.652 187.137 279.7 187.085 279.758 187.049C279.816 187.012 279.884 186.992 279.953 186.992C280.022 186.991 280.089 187.009 280.148 187.045C281.695 187.985 286.039 191.278 290.651 200.77Z" fill="#F55151"/>
<path d="M281.858 190.281C282.357 190.73 282.806 191.23 283.2 191.773L286.266 195.512L289.338 199.236C289.798 199.724 290.214 200.251 290.581 200.813C290.039 200.412 289.546 199.95 289.112 199.434C288.264 198.53 287.134 197.243 285.941 195.78C284.747 194.317 283.702 192.953 282.967 191.957C282.537 191.441 282.165 190.879 281.858 190.281Z" fill="#263238"/>
<path d="M284.683 226.702C284.683 226.702 277.621 217.867 280.919 209.739C280.945 209.675 280.988 209.62 281.044 209.579C281.099 209.538 281.165 209.514 281.234 209.508C281.302 209.502 281.371 209.515 281.433 209.546C281.494 209.577 281.546 209.624 281.583 209.683C282.565 211.216 284.917 216.136 284.683 226.702Z" fill="#F55151"/>
<path d="M281.633 213.33C281.874 213.958 282.05 214.609 282.156 215.274C282.452 216.631 282.798 218.228 283.18 219.995C283.561 221.762 283.921 223.352 284.218 224.709C284.407 225.353 284.537 226.013 284.606 226.681C284.296 226.08 284.059 225.444 283.9 224.787C283.554 223.593 283.13 221.96 282.735 220.08C282.339 218.2 282.028 216.546 281.831 215.33C281.692 214.673 281.626 214.002 281.633 213.33Z" fill="#263238"/>
<path d="M291.746 257.171C291.746 257.171 281.484 252.372 280.905 243.622C280.898 243.553 280.911 243.482 280.942 243.42C280.973 243.357 281.021 243.304 281.081 243.267C281.14 243.23 281.209 243.211 281.279 243.211C281.349 243.212 281.417 243.232 281.477 243.269C282.995 244.237 287.282 247.609 291.746 257.171Z" fill="#F55151"/>
<path d="M283.109 246.534C283.595 246.998 284.035 247.507 284.423 248.054L287.425 251.835L290.434 255.617C290.886 256.111 291.292 256.646 291.648 257.214C291.122 256.801 290.648 256.327 290.236 255.8C289.395 254.882 288.293 253.574 287.121 252.09C285.949 250.605 284.932 249.227 284.211 248.217C283.78 247.701 283.41 247.136 283.109 246.534Z" fill="#263238"/>
<path d="M312.165 212.616C312.165 212.616 312.165 212.701 312.165 212.863C312.165 213.026 312.165 213.294 312.165 213.57C312.165 214.277 312.094 215.175 312.045 216.319C311.917 218.737 311.727 222.108 311.508 226.137C310.801 230.236 308.683 234.781 305.858 239.198C303.802 242.449 301.62 245.404 299.783 248.153C298.107 250.566 296.602 253.093 295.277 255.716C294.401 257.488 293.691 259.338 293.159 261.243C292.982 261.914 292.841 262.444 292.763 262.805C292.73 262.992 292.68 263.177 292.615 263.356C292.617 263.165 292.641 262.976 292.685 262.79C292.735 262.423 292.841 261.886 293.003 261.2C293.478 259.263 294.153 257.38 295.016 255.581C296.329 252.938 297.832 250.394 299.515 247.969C301.366 245.199 303.506 242.237 305.554 239.007C308.344 234.611 310.42 230.137 311.204 226.101C311.487 222.08 311.72 218.715 311.91 216.298C312.002 215.153 312.08 214.242 312.136 213.556C312.136 213.273 312.186 213.033 312.207 212.849C312.183 212.774 312.169 212.695 312.165 212.616Z" fill="#263238"/>
<path d="M306.056 238.385C306.056 238.385 310.4 227.925 304.94 221.062C304.898 221.007 304.841 220.965 304.776 220.94C304.711 220.916 304.641 220.91 304.573 220.923C304.504 220.936 304.441 220.968 304.39 221.015C304.339 221.062 304.302 221.123 304.283 221.189C303.796 222.942 302.899 228.321 306.056 238.385Z" fill="#F55151"/>
<path d="M305.265 224.716C305.452 225.361 305.568 226.025 305.611 226.695C305.766 227.925 305.936 229.628 306.07 231.515C306.204 233.402 306.267 235.113 306.267 236.357C306.31 237.028 306.27 237.702 306.147 238.364C306.025 237.704 305.966 237.035 305.971 236.364C305.879 234.95 305.766 233.346 305.646 231.544C305.526 229.741 305.413 228.109 305.314 226.723C305.232 226.057 305.215 225.385 305.265 224.716Z" fill="#263238"/>
<g opacity="0.3">
<path opacity="0.3" d="M306.056 238.385C306.056 238.385 310.4 227.925 304.94 221.062C304.898 221.007 304.841 220.965 304.776 220.94C304.711 220.916 304.641 220.91 304.573 220.923C304.504 220.936 304.441 220.968 304.39 221.015C304.339 221.062 304.302 221.123 304.283 221.189C303.796 222.942 302.899 228.321 306.056 238.385Z" fill="black"/>
</g>
<path d="M292.601 263.61C292.601 263.61 296.083 252.825 290.079 246.435C290.033 246.385 289.973 246.348 289.907 246.328C289.841 246.309 289.77 246.309 289.704 246.327C289.637 246.345 289.577 246.382 289.53 246.432C289.483 246.482 289.451 246.545 289.437 246.612C289.098 248.393 288.638 253.835 292.601 263.61Z" fill="#F55151"/>
<path d="M290.702 250.026C290.946 250.655 291.117 251.309 291.21 251.977C291.464 253.186 291.768 254.875 292.058 256.741C292.347 258.607 292.545 260.31 292.651 261.547C292.743 262.215 292.755 262.891 292.686 263.561C292.519 262.912 292.405 262.25 292.347 261.582C292.142 260.204 291.902 258.593 291.641 256.804C291.38 255.016 291.125 253.405 290.935 252.027C290.792 251.369 290.713 250.699 290.702 250.026Z" fill="#263238"/>
<g opacity="0.3">
<path opacity="0.3" d="M292.601 263.61C292.601 263.61 296.083 252.825 290.079 246.435C290.033 246.385 289.973 246.348 289.907 246.328C289.841 246.309 289.77 246.309 289.704 246.327C289.637 246.345 289.577 246.382 289.53 246.432C289.483 246.482 289.451 246.545 289.437 246.612C289.098 248.393 288.638 253.835 292.601 263.61Z" fill="black"/>
</g>
<path d="M311.593 225.6C311.593 225.6 320.867 219.097 319.934 210.375C319.927 210.307 319.901 210.242 319.859 210.187C319.818 210.132 319.761 210.09 319.697 210.065C319.633 210.04 319.563 210.034 319.495 210.046C319.427 210.058 319.364 210.089 319.313 210.135C317.964 211.351 314.348 215.394 311.593 225.6Z" fill="#F55151"/>
<g opacity="0.3">
<path opacity="0.3" d="M311.593 225.6C311.593 225.6 320.867 219.097 319.934 210.375C319.927 210.307 319.901 210.242 319.859 210.187C319.818 210.132 319.761 210.09 319.697 210.065C319.633 210.04 319.563 210.034 319.495 210.046C319.427 210.058 319.364 210.089 319.313 210.135C317.964 211.351 314.348 215.394 311.593 225.6Z" fill="black"/>
</g>
<path d="M318.252 213.634C318.068 214.281 317.81 214.905 317.482 215.493C316.952 216.609 316.183 218.136 315.286 219.804C314.389 221.472 313.527 222.949 312.863 223.995C312.536 224.582 312.14 225.128 311.684 225.621C311.932 224.999 312.239 224.402 312.602 223.84C313.266 222.617 314.05 221.189 314.911 219.599L317.214 215.358C317.503 214.751 317.851 214.173 318.252 213.634Z" fill="#263238"/>
<path d="M296.345 252.917C296.345 252.917 307.533 251.171 310.527 242.93C310.552 242.866 310.558 242.796 310.545 242.728C310.532 242.661 310.501 242.598 310.455 242.547C310.409 242.496 310.35 242.458 310.285 242.439C310.219 242.419 310.149 242.418 310.082 242.435C308.338 242.958 303.281 244.972 296.345 252.917Z" fill="#F55151"/>
<g opacity="0.3">
<path opacity="0.3" d="M296.345 252.917C296.345 252.917 307.533 251.171 310.527 242.93C310.552 242.866 310.558 242.796 310.545 242.728C310.532 242.661 310.501 242.598 310.455 242.547C310.409 242.496 310.35 242.458 310.285 242.439C310.219 242.419 310.149 242.418 310.082 242.435C308.338 242.958 303.281 244.972 296.345 252.917Z" fill="black"/>
</g>
<path d="M307.589 245.114C307.135 245.609 306.628 246.052 306.077 246.435C305.11 247.213 303.746 248.245 302.214 249.347C300.681 250.45 299.247 251.39 298.188 252.04C297.636 252.426 297.038 252.741 296.408 252.98C296.909 252.533 297.451 252.133 298.026 251.786L301.967 249.001L305.901 246.174C306.424 245.762 306.99 245.406 307.589 245.114Z" fill="#263238"/>
<path d="M285.664 273.526L282.401 295.507H302.742L300.108 273.526H285.664Z" fill="#455A64"/>
<path d="M300.928 280.333C300.928 280.453 297.255 280.545 292.728 280.545C288.201 280.545 284.521 280.453 284.521 280.333C287.251 280.123 289.991 280.053 292.728 280.121C295.463 280.053 298.2 280.123 300.928 280.333Z" fill="#263238"/>
<path d="M301.323 282.086C301.323 282.206 297.531 282.298 292.848 282.298C288.165 282.298 284.373 282.206 284.373 282.086C284.373 281.966 288.165 281.874 292.848 281.874C297.531 281.874 301.323 281.966 301.323 282.086Z" fill="#263238"/>
<path d="M222.227 60.2833C222.227 60.2833 222.036 60.2833 221.669 60.2833C221.133 60.2514 220.595 60.2514 220.059 60.2833C217.984 60.4048 215.946 60.883 214.034 61.6968C211.003 62.9683 208.365 65.0248 206.392 67.655C205.176 69.2973 204.271 71.1491 203.722 73.1184C202.486 77.8095 203.154 82.7993 205.58 86.9996C206.241 88.1625 207.048 89.2361 207.981 90.1943C208.923 91.2094 210.019 92.0683 211.23 92.7387C212.473 93.4385 213.88 93.7923 215.305 93.7635C216.775 93.7459 218.185 93.1757 219.254 92.1662C219.77 91.6244 220.175 90.9859 220.446 90.2874C220.716 89.5889 220.846 88.844 220.829 88.0951C220.818 86.5394 220.324 85.0254 219.416 83.7626C217.587 81.1828 214.62 79.4512 211.463 78.5182C208.19 77.5981 204.732 77.5494 201.434 78.3769C199.751 78.8152 198.128 79.4609 196.603 80.2993C195.064 81.1685 193.666 82.2672 192.457 83.5576C192.168 83.8898 191.836 84.1937 191.574 84.5612L190.776 85.6355C190.291 86.3926 189.857 87.1812 189.477 87.9962C188.721 89.6509 188.205 91.4048 187.944 93.2052C187.432 96.8018 187.92 100.47 189.357 103.807C190.73 107.067 193.121 109.795 196.172 111.582C197.652 112.427 199.303 112.928 201.003 113.045C202.67 113.138 204.328 112.74 205.771 111.9C207.203 111.107 208.335 109.866 208.991 108.366C209.611 106.887 209.654 105.23 209.111 103.722C208.553 102.267 207.64 100.974 206.456 99.962C205.307 98.9684 203.982 98.1989 202.55 97.6932C199.757 96.812 196.769 96.7605 193.948 97.5448C191.308 98.2607 188.883 99.6123 186.885 101.482C185.065 103.226 183.679 105.373 182.838 107.751C181.367 111.876 181.434 116.394 183.028 120.473C184.272 123.518 186.273 126.194 188.841 128.247C190.459 129.546 192.261 130.596 194.188 131.364C194.852 131.612 195.367 131.795 195.72 131.894L196.243 132.064C196.243 132.064 196.059 132.029 195.706 131.93C195.184 131.79 194.67 131.622 194.167 131.428C192.214 130.694 190.389 129.659 188.756 128.361C186.145 126.309 184.104 123.619 182.831 120.551C181.208 116.433 181.126 111.868 182.598 107.694C183.44 105.281 184.842 103.101 186.687 101.333C188.713 99.4263 191.174 98.0434 193.856 97.3045C196.736 96.5002 199.788 96.5493 202.642 97.4459C204.116 97.9603 205.48 98.7493 206.661 99.7712C207.892 100.817 208.839 102.156 209.415 103.666C209.996 105.241 209.971 106.977 209.344 108.535C208.648 110.094 207.466 111.386 205.976 112.218C204.479 113.09 202.761 113.508 201.032 113.419C199.29 113.298 197.599 112.78 196.088 111.907C192.966 110.095 190.516 107.32 189.102 103.998C187.635 100.6 187.132 96.8634 187.648 93.1981C187.917 91.3613 188.445 89.5719 189.215 87.8831C189.604 87.0508 190.047 86.2456 190.543 85.473L191.363 84.3775C191.624 84.0029 191.963 83.6707 192.26 83.3456C193.497 82.0307 194.925 80.9108 196.497 80.0237C198.057 79.1693 199.718 78.5139 201.441 78.073C204.803 77.23 208.326 77.2812 211.661 78.2214C214.882 79.1826 217.898 80.9425 219.797 83.6141C220.752 84.9297 221.271 86.5116 221.281 88.1375C221.315 89.7377 220.713 91.2859 219.607 92.4418C218.477 93.5033 216.989 94.1012 215.44 94.1169C213.957 94.1506 212.492 93.7818 211.202 93.0497C209.962 92.3652 208.841 91.4844 207.882 90.4417C206.937 89.462 206.118 88.3673 205.446 87.1834C202.977 82.9051 202.306 77.8207 203.581 73.0478C204.147 71.0557 205.073 69.1846 206.315 67.5278C208.324 64.8777 211.007 62.8153 214.084 61.5555C216.012 60.7573 218.066 60.3075 220.151 60.2267C220.691 60.191 221.234 60.191 221.775 60.2267L222.227 60.2833Z" fill="#263238"/>
<path d="M245.81 131.004H146.783V207.436H245.81V131.004Z" fill="#F55151"/>
<path d="M146.783 131.004L165.075 148.08H262.422L245.81 131.004H146.783Z" fill="#F55151"/>
<path d="M146.783 131.004L245.839 130.827H245.916L245.973 130.877L262.415 147.776L262.584 147.952L262.888 148.263H262.45L165.104 148.186H165.061L146.783 131.004L165.146 147.967H165.068L262.415 147.896L262.288 148.207L262.111 148.03L245.676 131.131L245.803 131.188L146.783 131.004Z" fill="#263238"/>
<path d="M176.531 166.251C175.994 166.27 175.487 166.5 175.118 166.89C174.749 167.28 174.547 167.799 174.557 168.336C174.567 168.873 174.787 169.385 175.17 169.762C175.553 170.138 176.068 170.349 176.605 170.349C177.142 170.349 177.657 170.138 178.04 169.762C178.423 169.385 178.643 168.873 178.653 168.336C178.662 167.799 178.461 167.28 178.092 166.89C177.723 166.5 177.215 166.27 176.679 166.251" fill="#263238"/>
<path d="M199.93 166.251C199.396 166.271 198.891 166.501 198.524 166.89C198.157 167.279 197.957 167.796 197.967 168.331C197.977 168.866 198.197 169.375 198.578 169.75C198.96 170.125 199.473 170.335 200.008 170.335C200.543 170.335 201.056 170.125 201.437 169.75C201.819 169.375 202.039 168.866 202.049 168.331C202.059 167.796 201.859 167.279 201.492 166.89C201.125 166.501 200.62 166.271 200.086 166.251" fill="#263238"/>
<path d="M200.064 184.543C199.656 182.981 198.993 181.498 198.101 180.154C197.109 178.715 195.835 177.494 194.358 176.563C192.575 175.379 190.495 174.72 188.356 174.661C186.217 174.603 184.104 175.147 182.259 176.231C180.735 177.082 179.397 178.231 178.325 179.609C177.359 180.905 176.617 182.352 176.128 183.893C176.134 183.778 176.153 183.664 176.185 183.553C176.253 183.235 176.34 182.921 176.446 182.613C176.833 181.478 177.398 180.412 178.12 179.454C179.185 178.011 180.539 176.808 182.096 175.92C183.989 174.789 186.164 174.221 188.368 174.281C190.572 174.341 192.713 175.027 194.541 176.259C196.045 177.226 197.329 178.498 198.313 179.991C198.984 180.988 199.491 182.085 199.817 183.242C199.904 183.556 199.972 183.875 200.022 184.196C200.046 184.31 200.06 184.426 200.064 184.543Z" fill="#263238"/>
<path opacity="0.5" d="M147.009 131.845L164.525 154.066H245.811V148.08H165.076L147.009 131.845Z" fill="black"/>
<path d="M226.281 207.266C226.182 207.266 226.098 193.971 226.098 177.581C226.098 161.191 226.182 147.896 226.281 147.896C226.38 147.896 226.472 161.183 226.472 177.581C226.472 193.978 226.387 207.266 226.281 207.266Z" fill="#263238"/>
<path d="M241.833 189.935H233.103V199.809H241.833V189.935Z" fill="#F5F5F5"/>
<path d="M146.783 131.004L126.456 148.08H146.783V131.004Z" fill="#F55151"/>
<g opacity="0.4">
<path opacity="0.4" d="M146.783 131.004L126.456 148.08H146.783V131.004Z" fill="black"/>
</g>
<path d="M248.735 207.436H134.875V295.317H248.735V207.436Z" fill="#F55151"/>
<path opacity="0.3" d="M248.735 207.436H134.875V295.317H248.735V207.436Z" fill="black"/>
<path d="M220.208 294.695C220.109 294.695 220.024 275.11 220.024 250.952C220.024 226.794 220.109 207.202 220.208 207.202C220.306 207.202 220.391 226.787 220.391 250.952C220.391 275.117 220.306 294.695 220.208 294.695Z" fill="#263238"/>
<path d="M239.079 275.315H230.35V285.189H239.079V275.315Z" fill="#F5F5F5"/>
<path d="M182.54 207.668H169.608V226.419H182.54V207.668Z" fill="#263238"/>
<path d="M182.54 276.304H169.608V295.055H182.54V276.304Z" fill="#263238"/>
<path d="M247.746 207.436H247.45H246.595L243.311 207.471L231.212 207.527L191.314 207.619L151.402 207.57L139.311 207.513L136.027 207.478H135.165H134.875H135.165H136.027L139.311 207.443L151.402 207.386L191.314 207.33L231.212 207.386L243.311 207.443L246.595 207.478H247.45L247.746 207.436Z" fill="#263238"/>
<path d="M52.6142 55.2866L40.2119 52.2333H40.3037C37.1014 54.2717 33.3983 55.3847 29.6036 55.4492C27.357 55.4594 25.1216 55.133 22.9716 54.4809C19.1917 53.2663 15.8383 50.9943 13.3076 47.9333C10.7769 44.8723 9.17481 41.1503 8.69063 37.2071C8.31036 34.225 8.5903 31.1956 9.5106 28.3338C10.4309 25.4719 11.9691 22.8478 14.016 20.6472C15.092 19.4645 16.298 18.4071 17.611 17.495C18.2749 17.078 18.9388 16.6469 19.6309 16.2864L20.6833 15.7775L21.2059 15.5231L21.7568 15.3252C24.5928 14.2251 27.6351 13.7595 30.6701 13.9611C34.7375 14.2254 38.6357 15.6886 41.8735 18.1664C45.1112 20.6443 47.5435 24.0257 48.8639 27.8847C49.5974 30.0434 49.9836 32.305 50.008 34.585C50.0257 38.3741 48.9967 42.0944 47.0346 45.3351V45.222C50.4812 51.4488 52.2187 54.594 52.6072 55.2866C52.2046 54.5798 50.4036 51.4912 46.8368 45.3281V45.2715V45.215C48.7285 42.0056 49.7056 38.339 49.662 34.6133C49.6292 32.3698 49.2381 30.146 48.5037 28.026C47.1977 24.246 44.8063 20.9355 41.6291 18.5091C38.4519 16.0827 34.6299 14.6482 30.6418 14.3851C27.6666 14.1911 24.685 14.6494 21.9051 15.728L21.3684 15.9189L20.8528 16.1733L19.8216 16.6681C19.1153 17.0285 18.4938 17.4455 17.837 17.8555C16.5493 18.7431 15.3648 19.7719 14.3056 20.9229C12.2961 23.0831 10.7856 25.659 9.88125 28.4681C8.97686 31.2773 8.7006 34.251 9.07202 37.1789C9.72682 42.5428 12.4768 47.4293 16.721 50.7703C18.6185 52.2748 20.7719 53.4241 23.0776 54.1628C25.1889 54.816 27.3866 55.1472 29.5965 55.1453C33.3458 55.1051 37.0114 54.0315 40.1907 52.0425H40.2331H40.3108L52.6142 55.2866Z" fill="#263238"/>
<path d="M27.598 25.4816L28.2266 35.8713C28.2517 36.2811 28.4257 36.6676 28.7158 36.9579C29.0059 37.2482 29.3921 37.4223 29.8016 37.4474C30.2325 37.4718 30.6563 37.3301 30.986 37.0514C31.3158 36.7727 31.5263 36.3783 31.5743 35.9491L32.7256 25.5382C32.7456 25.3519 32.7259 25.1635 32.6676 24.9855C32.6094 24.8074 32.514 24.6438 32.3878 24.5055C32.2616 24.3671 32.1074 24.2572 31.9355 24.183C31.7636 24.1088 31.5779 24.072 31.3907 24.0751H28.8693C28.6924 24.0804 28.5183 24.1214 28.3576 24.1957C28.1969 24.2699 28.0529 24.3759 27.9341 24.5073C27.8154 24.6387 27.7244 24.7927 27.6667 24.9601C27.6089 25.1275 27.5855 25.3049 27.598 25.4816Z" fill="#F55151"/>
<path d="M32.5425 43.2499C32.3845 43.7245 32.0894 44.1416 31.6945 44.4484C31.2997 44.7553 30.8228 44.9381 30.3242 44.9738C29.8255 45.0095 29.3275 44.8965 28.893 44.649C28.4586 44.4016 28.1071 44.0308 27.8832 43.5835C27.6592 43.1363 27.5728 42.6326 27.6348 42.1362C27.6967 41.6398 27.9044 41.1729 28.2314 40.7946C28.5585 40.4162 28.9903 40.1434 29.4723 40.0105C29.9542 39.8777 30.4647 39.8908 30.9393 40.0482C31.2548 40.1528 31.5466 40.3187 31.7979 40.5363C32.0493 40.7539 32.2554 41.019 32.4043 41.3164C32.5532 41.6138 32.642 41.9376 32.6658 42.2694C32.6895 42.6011 32.6476 42.9343 32.5425 43.2499Z" fill="#F55151"/>
</svg>
